<svg preserveAspectRatio="none" width="100%" height="100%" overflow="visible" style="display: block;" viewBox="0 0 10.5 12.833" fill="none" xmlns="http://www.w3.org/2000/svg">
<path id="Union" d="M5.25 0C6.64219 8.6248e-05 7.97744 0.552722 8.96191 1.53711C9.9464 2.52166 10.5 3.85767 10.5 5.25C10.4998 6.90278 9.5933 8.51806 8.62891 9.78516C7.65094 11.07 6.53859 12.0932 5.98145 12.5742C5.97167 12.5826 5.96149 12.5909 5.95117 12.5986C5.74912 12.7505 5.50277 12.8329 5.25 12.833C4.9972 12.833 4.75093 12.7505 4.54883 12.5986C4.53838 12.5908 4.52748 12.5828 4.51758 12.5742C3.9604 12.0931 2.8481 11.0701 1.87012 9.78516C0.905723 8.51806 0.000208124 6.90278 0 5.25C0 3.85767 0.55262 2.52166 1.53711 1.53711C2.52168 0.552543 3.85761 0 5.25 0ZM5.25 1.16602C4.16703 1.16602 3.12808 1.59653 2.3623 2.3623C1.59661 3.12807 1.16602 4.16709 1.16602 5.25C1.16623 6.50944 1.87668 7.86751 2.79883 9.0791C3.68938 10.249 4.71188 11.1959 5.24902 11.6621C5.78602 11.1961 6.81015 10.2497 7.70117 9.0791C8.62332 7.86751 9.33279 6.50944 9.33301 5.25C9.33301 4.16709 8.90242 3.12807 8.13672 2.3623C7.37104 1.59671 6.33277 1.1661 5.25 1.16602ZM5.25 2.91602C6.53858 2.91602 7.58288 3.96047 7.58301 5.24902C7.58301 6.53769 6.53866 7.58203 5.25 7.58203C3.96134 7.58203 2.91699 6.53769 2.91699 5.24902C2.91712 3.96047 3.96142 2.91602 5.25 2.91602ZM5.25 4.08203C4.60575 4.08203 4.08314 4.6048 4.08301 5.24902C4.08301 5.89336 4.60567 6.41602 5.25 6.41602C5.89433 6.41602 6.41699 5.89336 6.41699 5.24902C6.41686 4.6048 5.89425 4.08203 5.25 4.08203Z" fill="var(--fill-0, #6F6F6F)"/>
</svg>
