<svg preserveAspectRatio="none" width="100%" height="100%" overflow="visible" style="display: block;" viewBox="0 0 12.8301 12.8301" fill="none" xmlns="http://www.w3.org/2000/svg">
<path id="Union" d="M5.93359 0C6.39764 0.000133106 6.84282 0.184514 7.1709 0.512695L12.249 5.59082C12.621 5.96523 12.8301 6.47222 12.8301 7C12.8299 7.52764 12.6209 8.03392 12.249 8.4082L8.4082 12.249C8.03387 12.6209 7.52767 12.83 7 12.8301C6.47222 12.8301 5.96523 12.621 5.59082 12.249L0.512695 7.1709C0.184572 6.84287 0.000197676 6.39755 0 5.93359V1.75C0 1.28593 0.184583 0.840872 0.512695 0.512695C0.840884 0.184507 1.28587 0 1.75 0H5.93359ZM1.75 1.16602C1.59529 1.16602 1.44631 1.22752 1.33691 1.33691C1.22759 1.4463 1.16602 1.59535 1.16602 1.75V5.93359C1.16621 6.088 1.22774 6.23649 1.33691 6.3457L6.41504 11.4229H6.41406C6.5698 11.5771 6.78079 11.6631 7 11.6631C7.21948 11.663 7.43019 11.5765 7.58594 11.4219L11.4229 7.58496C11.5769 7.42936 11.6629 7.21899 11.6631 7C11.6631 6.78079 11.5771 6.5698 11.4229 6.41406L6.3457 1.33691C6.23643 1.22768 6.08809 1.16615 5.93359 1.16602H1.75ZM3.87988 2.91992C4.32117 2.96459 4.66589 3.33798 4.66602 3.79102C4.66584 4.27401 4.27401 4.66584 3.79102 4.66602C3.33787 4.66602 2.96459 4.32125 2.91992 3.87988L2.91602 3.79102L2.91992 3.70117C2.96485 3.26008 3.33806 2.91602 3.79102 2.91602L3.87988 2.91992Z" fill="var(--fill-0, #6F6F6F)"/>
</svg>
