<svg width="48" height="48" viewBox="0 0 48 48" fill="none" xmlns="http://www.w3.org/2000/svg">
  <g clip-path="url(#clip0)">
    <circle cx="24" cy="24" r="24" fill="#FAFDFF" />
    <path d="M19.1582 13.8887C19.9491 13.8887 20.6932 14.1913 21.2529 14.7412C21.8139 15.2926 22.1229 16.0263 22.123 16.8066V26.2178C22.1232 27.8578 22.7695 29.3992 23.9199 30.5586C25.0698 31.7173 26.5989 32.3555 28.2246 32.3555C29.8502 32.3554 31.3785 31.7172 32.5283 30.5586C33.6787 29.3992 34.3124 27.8578 34.3125 26.2178V22.0723C34.3125 21.8213 34.3989 21.7402 34.6152 21.7402H35.5186C36.3994 21.7403 36.7529 22.0958 36.7529 22.7812V24.2344C36.7529 25.1899 36.7523 25.2391 36.752 25.29C36.7516 25.3376 36.751 25.3872 36.751 26.3408C36.7509 28.8097 35.8186 31.1312 34.125 32.8779C32.4288 34.627 30.1726 35.5898 27.7725 35.5898C25.3725 35.5897 23.117 34.6269 21.4209 32.8779C19.7273 31.1314 18.794 28.8097 18.7939 26.3408V20.5615C18.7939 20.5563 18.7947 20.5501 18.7949 20.5449V17.6621H19.3906V26.3408C19.3906 28.6541 20.2634 30.8281 21.8486 32.4629C23.4314 34.0953 25.5352 34.9941 27.7725 34.9941C30.0097 34.9941 32.1144 34.0954 33.6973 32.4629C35.2823 30.8282 36.1553 28.6539 36.1553 26.3408C36.1553 25.3847 36.1559 25.3362 36.1562 25.2852C36.1566 25.2377 36.1572 25.1876 36.1572 24.2354V22.7812C36.1572 22.4454 35.9609 22.2588 35.5078 22.2588H34.9619C34.9253 22.2588 34.9093 22.279 34.9092 22.3193V26.2168C34.9092 28.0153 34.2142 29.7068 32.9521 30.9785C31.6897 32.251 30.0106 32.952 28.2246 32.9521C26.4385 32.9521 24.7586 32.251 23.4961 30.9785C22.2343 29.7069 21.5265 28.016 21.5264 26.2178V16.8066C21.5263 16.1874 21.2811 15.6044 20.835 15.166C20.3875 14.7263 19.7917 14.4844 19.1582 14.4844C18.5247 14.4844 17.9289 14.7264 17.4814 15.166C17.0354 15.6044 16.7892 16.1874 16.7891 16.8066V21.5312H16.1934V16.8066C16.1935 16.0262 16.5025 15.2926 17.0635 14.7412C17.6232 14.1913 18.3673 13.8887 19.1582 13.8887ZM19.2402 9.69043C21.1434 9.69052 22.9325 10.4301 24.2783 11.7725C25.6161 13.1068 26.3564 14.8781 26.3652 16.7637V17.5049C26.3652 17.5113 26.3645 17.5177 26.3623 17.5234V17.7188C26.4168 17.7142 26.4738 17.7119 26.5332 17.7119H28.0479L28.0947 17.7588V18.5674H26.7451C26.5956 18.5674 26.5035 18.6024 26.4482 18.6582C26.3995 18.7075 26.3693 18.7847 26.3623 18.9023V21.665H26.8574C27.1124 21.665 27.3091 21.729 27.4414 21.8613C27.5737 21.9938 27.6289 22.1817 27.6289 22.4004C27.6288 22.6174 27.5781 22.7975 27.4443 22.9209C27.3121 23.0426 27.1139 23.0947 26.8535 23.0947H26.3623V23.3857H27.5273V23.9609H26.3623V25.9814C26.3623 26.9529 27.1525 27.7432 28.124 27.7432C29.0954 27.743 29.8857 26.9528 29.8857 25.9814V23.9609H28.8467C28.5557 23.9608 28.3088 23.8678 28.1367 23.6699C27.9661 23.4736 27.878 23.1848 27.8779 22.8135C27.8779 22.442 27.9661 22.1525 28.1367 21.9561C28.3088 21.7582 28.5557 21.6652 28.8467 21.665H29.9834V22.2363H28.8857C28.7219 22.2364 28.6209 22.2801 28.5576 22.3604C28.4908 22.4456 28.4521 22.5886 28.4521 22.8135C28.4522 23.0382 28.491 23.1788 28.5576 23.2627C28.6207 23.342 28.7212 23.3856 28.8857 23.3857H29.9834V23.4297H29.9912V25.9814C29.9912 27.011 29.1535 27.8485 28.124 27.8486C27.0944 27.8486 26.2568 27.0111 26.2568 25.9814V23.9609H26.1924C25.9216 23.9608 25.7195 23.8814 25.5859 23.7363V26.0723C25.5859 26.7558 25.8516 27.3993 26.335 27.8828C26.8182 28.366 27.461 28.6318 28.1445 28.6318C28.828 28.6318 29.4708 28.3659 29.9541 27.8828C30.4374 27.3995 30.7041 26.756 30.7041 26.0723V23.8496C30.6187 23.8041 30.542 23.7451 30.4766 23.6699C30.3059 23.4736 30.2179 23.1848 30.2178 22.8135C30.2178 22.442 30.3059 22.1525 30.4766 21.9561C30.6488 21.7581 30.8962 21.6651 31.1875 21.665H31.6182C31.9076 21.665 32.1545 21.7583 32.3271 21.9561C32.4984 22.1524 32.5879 22.4416 32.5879 22.8135C32.5878 23.1851 32.4983 23.4736 32.3271 23.6699C32.3159 23.6828 32.3029 23.694 32.291 23.7061V26.0723C32.291 27.1796 31.8601 28.2211 31.0771 29.0039C30.2942 29.7869 29.2528 30.2177 28.1455 30.2178C27.0381 30.2178 25.9969 29.7869 25.2139 29.0039C24.4308 28.2209 23.9844 27.1796 23.9844 26.0723V16.8701C23.9844 15.5595 23.4805 14.327 22.5654 13.4004C21.6506 12.4738 20.4342 11.9639 19.1406 11.9639C17.847 11.9639 16.6307 12.4739 15.7158 13.4004C14.8008 14.327 14.2969 15.5593 14.2969 16.8701V35.5869H14.1904V16.8701C14.1905 15.5314 14.7059 14.2728 15.6406 13.3262C16.5753 12.3795 17.8186 11.8584 19.1406 11.8584C20.4627 11.8585 21.7058 12.3794 22.6406 13.3262C23.5751 14.2726 24.0898 15.5316 24.0898 16.8701V17.9824L24.1045 26.0723C24.1045 27.1513 24.5249 28.1665 25.2881 28.9297C26.0511 29.6926 27.0663 30.1123 28.1455 30.1123C29.2245 30.1122 30.2389 29.6927 31.002 28.9297C31.765 28.1667 32.1855 27.1515 32.1855 26.0723V23.7979C32.0323 23.9062 31.8428 23.9581 31.6299 23.96V26.0723C31.6299 27.0028 31.2673 27.8779 30.6094 28.5361C29.9514 29.1942 29.076 29.5565 28.1455 29.5566C27.2149 29.5566 26.3397 29.1942 25.6816 28.5361C25.0235 27.878 24.6611 27.0029 24.6611 26.0723V16.7979C24.6611 15.3444 24.0948 13.9778 23.0674 12.9502C22.0395 11.9223 20.6722 11.3555 19.2188 11.3555C17.7653 11.3555 16.3989 11.9225 15.3711 12.9502C14.3433 13.9781 13.7773 15.3444 13.7773 16.7979V35.5869H13.5127V16.7979C13.5127 15.2738 14.1069 13.8414 15.1846 12.7637C16.2621 11.6862 17.6947 11.0918 19.2188 11.0918C20.7428 11.0918 22.1752 11.686 23.2529 12.7637C24.3305 13.8412 24.9248 15.2738 24.9248 16.7979V26.0723C24.9248 26.9325 25.2597 27.7414 25.8682 28.3496C26.4764 28.9578 27.2853 29.293 28.1455 29.293C29.0056 29.2929 29.8147 28.9578 30.4229 28.3496C31.0309 27.7412 31.3662 26.9323 31.3662 26.0723V23.9609H31.1875C31.0506 23.9609 30.9239 23.9388 30.8096 23.8965V26.0723C30.8096 26.7841 30.5326 27.4537 30.0293 27.957C29.5261 28.4604 28.8563 28.7373 28.1445 28.7373C27.4329 28.7372 26.764 28.4602 26.2607 27.957C25.7574 27.4537 25.4795 26.7839 25.4795 26.0723V23.5713C25.425 23.454 25.3985 23.3201 25.3984 23.1777V22.4482C25.3985 22.3059 25.4248 22.1719 25.4795 22.0547V21.4785H25.4766V18.8438C25.4766 18.8246 25.4791 18.8058 25.4795 18.7871V16.7979C25.4795 15.1254 24.8281 13.5527 23.6455 12.3701C22.463 11.1878 20.891 10.5362 19.2188 10.5361C17.5463 10.5361 15.9736 11.1874 14.791 12.3701C13.6084 13.5527 12.9571 15.1254 12.957 16.7979V35.5869H12.8516V16.7979C12.8516 15.0971 13.5144 13.4983 14.7168 12.2959C15.9192 11.0935 17.5182 10.4307 19.2188 10.4307C20.9193 10.4307 22.5183 11.0935 23.7207 12.2959C24.9231 13.4983 25.5859 15.0973 25.5859 16.7979V18.2041C25.6209 18.1251 25.6638 18.0542 25.7188 17.9932C25.8478 17.8499 26.0273 17.7664 26.2568 17.7314V17.4736C26.2568 17.4671 26.2575 17.4608 26.2598 17.4551V16.7979C26.2597 14.9277 25.5301 13.169 24.2041 11.8467C22.8782 10.5241 21.1145 9.7959 19.2393 9.7959C17.3642 9.79601 15.6013 10.5244 14.2754 11.8467C12.9496 13.1692 12.2198 14.9275 12.2197 16.7979V35.5869H12.1143V16.7979C12.1143 14.8995 12.8555 13.1148 14.2012 11.7725C15.5469 10.4301 17.3369 9.69043 19.2402 9.69043ZM19.1289 12.4395C20.3019 12.4395 21.4042 12.9084 22.2324 13.7607C23.0574 14.6096 23.5117 15.7376 23.5117 16.9365V20.1777C23.5125 20.1883 23.5127 20.1992 23.5127 20.21V26.2109C23.5128 27.4449 23.9984 28.6055 24.8799 29.4785C25.7628 30.3528 26.9381 30.835 28.1875 30.835C29.4368 30.8348 30.6113 30.3525 31.4941 29.4785C32.3757 28.6055 32.8613 27.4449 32.8613 26.2109V16.1475H33.7314V26.2109C33.7314 27.6792 33.1547 29.0598 32.1064 30.0977C31.0594 31.1343 29.6676 31.705 28.1875 31.7051C26.7073 31.7051 25.3145 31.1344 24.2676 30.0977C23.2195 29.0598 22.6426 27.6793 22.6426 26.2109V20.6934C22.6418 20.6828 22.6416 20.6719 22.6416 20.6611V16.9365C22.6415 15.9795 22.2649 15.0428 21.6084 14.3672C20.9455 13.6851 20.0647 13.3096 19.1289 13.3096C18.1931 13.3096 17.3125 13.6852 16.6494 14.3672C15.9929 15.0428 15.6163 15.9794 15.6162 16.9365V35.5869H14.7461V16.9365C14.7461 15.7375 15.2004 14.6096 16.0254 13.7607C16.8537 12.9084 17.9559 12.4395 19.1289 12.4395ZM25.957 23.1689C25.9571 23.2407 25.9759 23.2929 26.0078 23.3262C26.0391 23.3588 26.0948 23.3856 26.1924 23.3857H26.2568V23.0947H25.957V23.1689ZM31.2256 22.2363C31.0618 22.2365 30.9607 22.2801 30.8975 22.3604C30.8306 22.4456 30.792 22.5886 30.792 22.8135C30.7921 23.0382 30.8309 23.1788 30.8975 23.2627C30.9605 23.342 31.0611 23.3856 31.2256 23.3857H31.5791C31.7417 23.3857 31.8435 23.3423 31.9072 23.2627C31.9743 23.1787 32.0136 23.0378 32.0137 22.8135C32.0137 22.5887 31.9737 22.4466 31.9062 22.3613C31.8423 22.2805 31.7413 22.2363 31.5791 22.2363H31.2256ZM26.1924 22.2363C26.0954 22.2365 26.0394 22.2637 26.0078 22.2969C25.9756 22.331 25.957 22.3837 25.957 22.4531V22.6006H26.2568V22.2363H26.1924ZM26.3623 22.6006H26.8418C26.9426 22.6006 26.9959 22.5778 27.0234 22.5527C27.0494 22.529 27.0664 22.4896 27.0664 22.4238C27.0663 22.3598 27.0478 22.3162 27.0195 22.2881C26.991 22.26 26.9406 22.2363 26.8535 22.2363H26.3623V22.6006ZM25.5859 21.8896C25.7194 21.7448 25.9218 21.6652 26.1924 21.665H26.2568V21.4785H25.5859V21.8896ZM32.1123 18.5674H30.2422C29.9414 18.5675 29.7435 18.6456 29.6172 18.7998C29.4879 18.9578 29.42 19.2117 29.4199 19.5947C29.4199 19.9777 29.4873 20.2305 29.6162 20.3867C29.7423 20.5392 29.9409 20.6161 30.2422 20.6162H32.1123V21.4785H30.1738C29.6759 21.4784 29.2609 21.3262 28.9717 21.0068C28.6835 20.6886 28.5303 20.2149 28.5303 19.5947C28.5304 18.9748 28.6836 18.5018 28.9717 18.1836C29.2609 17.8642 29.676 17.712 30.1738 17.7119H32.1123V18.5674ZM34.8936 17.7119C35.5014 17.7119 35.9684 17.862 36.2842 18.1504C36.6009 18.4399 36.7538 18.8581 36.7539 19.3691V21.4785H35.8789V19.3691C35.8788 19.1087 35.8022 18.9133 35.6504 18.7812C35.4963 18.6474 35.2517 18.5674 34.8936 18.5674H33.8838V17.7119H34.8936Z" fill="url(#paint0_linear)" />
  </g>
  <defs>
    <linearGradient id="paint0_linear" x1="14.7458" y1="24.0128" x2="33.7314" y2="24.0128" gradientUnits="userSpaceOnUse">
      <stop stop-color="#1A6F9E" />
      <stop offset="1" stop-color="#B02D6C" />
    </linearGradient>
    <clipPath id="clip0">
      <rect width="48" height="48" fill="#FAFDFF" />
    </clipPath>
  </defs>
</svg>
